<svg xmlns="http://www.w3.org/2000/svg" width="136.518" height="123.707" viewBox="0 0 136.518 123.707"><defs><style>.a{fill:#fff;}</style></defs><path class="a" d="M131.561,51.277h-2.437a61.861,61.861,0,0,0-104.6-32.66A61.4,61.4,0,0,0,7.346,51.545H4.958A4.963,4.963,0,0,0,0,56.5V74.52a4.964,4.964,0,0,0,4.958,4.958H8.825a61.845,61.845,0,0,0,19.148,29.814,2,2,0,0,0,2.609-3.037,57.97,57.97,0,0,1-6.6-6.669,76.783,76.783,0,0,1,9.336-3.225,66.367,66.367,0,0,0,5.035,7.618,78.059,78.059,0,0,0,13.59,13.884,57.37,57.37,0,0,1-11.74-4.9,2,2,0,0,0-1.945,3.5,61.908,61.908,0,0,0,89.431-36.89h3.87a4.963,4.963,0,0,0,4.958-4.958V56.235a4.964,4.964,0,0,0-4.958-4.958Zm-6.513,0H111.122c-.167-1.037-.351-2.075-.566-3.111a70.539,70.539,0,0,0-5.547-16.4c.369-.1.74-.2,1.106-.3a76.32,76.32,0,0,0,8.98-3.084,57.219,57.219,0,0,1,9.952,22.9Zm-17.939.268H86.424c-.069-1-.144-2.008-.232-3.01-.4-4.479-.982-8.815-1.736-12.961a129.593,129.593,0,0,0,16.6-2.792,66.481,66.481,0,0,1,5.584,16.2c.177.854.33,1.71.473,2.566Zm2.056-30.1q1.769,1.769,3.362,3.661a77.267,77.267,0,0,1-7.513,2.5c-.627.179-1.258.351-1.891.52a70.339,70.339,0,0,0-4.179-6.607A68.765,68.765,0,0,0,84.82,6.9a57.561,57.561,0,0,1,24.345,14.548ZM74.432,4.831A65.07,65.07,0,0,1,95.686,23.852q1.831,2.567,3.4,5.277a126.575,126.575,0,0,1-15.41,2.5C81.356,20.842,77.846,11.548,73.449,4.737q.492.042.983.095ZM68.259,4.5H68.4c4.864,6.419,8.753,16.008,11.258,27.474q-6.415.462-13.135.369C63.489,32.3,60.236,32.21,56.85,32c2.5-11.477,6.4-21.075,11.263-27.5h.146Zm-5.19.232c-4.408,6.827-7.923,16.149-10.241,26.97a114.855,114.855,0,0,1-15.522-2.357q1.622-2.823,3.526-5.5A65.093,65.093,0,0,1,62.086,4.83q.491-.052.983-.094ZM52.047,35.658c-.747,4.12-1.327,8.428-1.721,12.877-.089,1-.164,2.006-.231,3.01H29.407c.142-.856.3-1.712.475-2.566a66.528,66.528,0,0,1,5.474-15.972,116.45,116.45,0,0,0,16.691,2.652ZM27.353,21.447A57.561,57.561,0,0,1,51.7,6.9,68.716,68.716,0,0,0,37.574,21.525a70,70,0,0,0-4.291,6.813,76.607,76.607,0,0,1-9.3-3.216q1.6-1.9,3.374-3.675Zm-5.933,6.935a79.376,79.376,0,0,0,9.992,3.585,70.564,70.564,0,0,0-5.45,16.2q-.348,1.687-.609,3.379H11.419a57.216,57.216,0,0,1,10-23.163ZM4.958,75.474A.955.955,0,0,1,4,74.519V56.5a.955.955,0,0,1,.954-.954H62.743a2,2,0,1,0,0-4H54.107c.062-.885.13-1.772.208-2.656.4-4.48.984-8.8,1.743-12.923,3.652.234,7.151.339,10.413.385q1.184.017,2.362.018,5.924,0,11.623-.435c.76,4.129,1.35,8.464,1.748,12.955q.117,1.326.209,2.656H75.242a2,2,0,1,0,0,4h31.051V75.473H4.958Zm100.855,4a63.7,63.7,0,0,1-4.772,12.447,129.668,129.668,0,0,0-16.565-2.791c.575-3.13,1.047-6.357,1.411-9.654h19.926Zm-23.949,0c-.361,3.18-.826,6.288-1.389,9.3q-6.837-.519-14-.42c-3.268.047-6.774.151-10.432.386-.56-3-1.023-6.1-1.383-9.267ZM21.433,96.321A57.8,57.8,0,0,1,13,79.476H26.575a67.856,67.856,0,0,0,4.836,13.265A79.264,79.264,0,0,0,21.433,96.321ZM30.71,79.476H50.629c.361,3.27.83,6.471,1.4,9.576A116.447,116.447,0,0,0,35.365,91.7,63.711,63.711,0,0,1,30.71,79.476Zm31.356,40.388a69.229,69.229,0,0,1-20.532-18.32,62.159,62.159,0,0,1-4.173-6.2A114.994,114.994,0,0,1,52.817,93a103.058,103.058,0,0,0,2.811,10.388A78.286,78.286,0,0,0,63.1,119.969c-.344-.03-.687-.067-1.031-.1Zm6.193.34-.146,0c-3.152-4.176-6.149-10.408-8.683-18.069C58.446,99.158,57.586,96,56.851,92.7c3.386-.205,6.638-.3,9.677-.345q6.716-.1,13.134.371c-.734,3.286-1.593,6.436-2.574,9.4-2.533,7.661-5.532,13.893-8.683,18.069l-.146,0Zm5.158-.229a78.166,78.166,0,0,0,7.472-16.585,102.377,102.377,0,0,0,2.794-10.311,126.566,126.566,0,0,1,15.343,2.487,62.1,62.1,0,0,1-4.042,5.979,69.23,69.23,0,0,1-20.553,18.332q-.506.053-1.014.1Zm35.748-16.715a57.545,57.545,0,0,1-24.629,14.631,78.044,78.044,0,0,0,13.628-13.913,66.137,66.137,0,0,0,4.916-7.414q.972.259,1.934.531a77.56,77.56,0,0,1,7.508,2.5c-1.063,1.259-2.178,2.484-3.357,3.662Zm5.924-6.933a76.385,76.385,0,0,0-8.974-3.081c-.367-.105-.737-.2-1.106-.3a67.83,67.83,0,0,0,4.91-13.374h13.586a57.212,57.212,0,0,1-8.416,16.759ZM132.515,74.52a.955.955,0,0,1-.954.954H110.3V55.548h21.265a.956.956,0,0,1,.954.955Zm0,0" transform="translate(0 -0.501)"/><path class="a" d="M51.565,229.908c0,.3-.445.606-.962.606-.561,0-.947-.31-.947-.606v-9.925c0-.355.385-.593.947-.593.518,0,.962.237.962.593v4.54a2.028,2.028,0,0,1,1.863-1.124,2.844,2.844,0,0,1,2.543,3v3.5c0,.4-.487.607-.961.607-.444,0-.947-.207-.947-.607v-3.5a1.368,1.368,0,0,0-1.286-1.331,1.258,1.258,0,0,0-1.213,1.331v3.506Zm0,0" transform="translate(-36.416 -161.026)"/><path class="a" d="M83.856,230.765c0,.577.207.784.829.784h.577a.806.806,0,1,1,0,1.612h-.577c-1.775,0-2.736-.725-2.736-2.4v-7.173c0-.355.5-.592.947-.592.487,0,.961.236.961.592v2.543H85.6c.31,0,.487.355.487.7s-.177.695-.487.695H83.857v3.239Zm0,0" transform="translate(-60.099 -163.673)"/><path class="a" d="M106.436,230.765c0,.577.206.784.828.784h.577a.806.806,0,1,1,0,1.612h-.577c-1.775,0-2.736-.725-2.736-2.4v-7.173c0-.355.5-.592.947-.592.488,0,.961.236.961.592v2.543h1.746c.31,0,.487.355.487.7s-.177.695-.487.695h-1.746Zm0,0" transform="translate(-76.657 -163.673)"/><path class="a" d="M129.008,235.106v.444a2.325,2.325,0,0,1,2-1.124,2.842,2.842,0,0,1,2.648,3v1.212a2.937,2.937,0,0,1-2.588,3.033,2.2,2.2,0,0,1-1.937-1.169v3.7c0,.31-.444.606-.977.606s-.931-.3-.931-.606v-9.1c0-.355.4-.592.9-.592S129.008,234.751,129.008,235.106Zm2.736,2.323A1.388,1.388,0,0,0,130.4,236.1a1.294,1.294,0,0,0-1.272,1.331v1.479a1.438,1.438,0,0,0,1.3,1.095,1.41,1.41,0,0,0,1.316-1.361Zm0,0" transform="translate(-93.298 -172.053)"/><path class="a" d="M161.5,239.588c0-1.3-3.506-.487-3.506-2.958,0-1.05.666-2.2,2.648-2.2,1.2,0,2.352.415,2.352.961,0,.267-.251.918-.695.918-.355,0-.813-.429-1.627-.429-.739,0-1.035.37-1.035.666,0,1.08,3.55.341,3.55,2.973,0,1.318-.976,2.16-2.722,2.16-1.508,0-2.677-.622-2.677-1.273,0-.31.266-.843.635-.843.429,0,.755.666,2,.666.872,0,1.079-.341,1.079-.636Zm0,0" transform="translate(-115.717 -172.052)"/><path class="a" d="M187.246,238.706a1.023,1.023,0,0,1-.991,1.005,1.006,1.006,0,1,1,.991-1.005Zm0,4.318a1.023,1.023,0,0,1-.991,1.006,1.006,1.006,0,1,1,.991-1.006Zm0,0" transform="translate(-135.855 -174.453)"/><path class="a" d="M206.106,219.005a.573.573,0,0,1-.059.266l-5.31,10.739a.643.643,0,0,1-.577.325.69.69,0,0,1-.71-.651.5.5,0,0,1,.074-.251l5.31-10.783a.577.577,0,0,1,.533-.31A.717.717,0,0,1,206.106,219.005Zm0,0" transform="translate(-146.269 -160.256)"/><path class="a" d="M222.864,219.005a.586.586,0,0,1-.059.266l-5.311,10.739a.641.641,0,0,1-.576.325.69.69,0,0,1-.71-.651.494.494,0,0,1,.074-.251l5.31-10.783a.576.576,0,0,1,.533-.31A.718.718,0,0,1,222.864,219.005Zm0,0" transform="translate(-158.558 -160.256)"/><path class="a" d="M252.042,241.4c-.1.252-.429.341-.754.341-.37,0-.7-.119-.784-.341l-1.139-3.225-1.124,3.21c-.089.236-.444.355-.813.355a.739.739,0,0,1-.74-.355l-2.278-5.842a.607.607,0,0,1-.074-.281c0-.458.74-.784,1.243-.784a.541.541,0,0,1,.547.31l1.479,4.2,1.109-3.654c.1-.34.355-.384.651-.384s.548.045.651.384l1.095,3.668,1.494-4.215a.549.549,0,0,1,.548-.31c.473,0,1.228.325,1.228.8a.542.542,0,0,1-.059.267Zm0,0" transform="translate(-179.187 -172.092)"/><path class="a" d="M293.816,241.4c-.1.252-.428.341-.754.341-.37,0-.695-.119-.784-.341l-1.138-3.225-1.125,3.21c-.089.236-.443.355-.813.355a.74.74,0,0,1-.739-.355l-2.278-5.842a.607.607,0,0,1-.074-.281c0-.458.739-.784,1.243-.784a.543.543,0,0,1,.548.31l1.479,4.2,1.109-3.654c.1-.34.355-.384.651-.384s.547.045.65.384l1.095,3.668,1.495-4.215a.549.549,0,0,1,.547-.31c.474,0,1.228.325,1.228.8a.542.542,0,0,1-.059.267Zm0,0" transform="translate(-209.822 -172.092)"/><path class="a" d="M335.593,241.4c-.1.252-.428.341-.754.341-.37,0-.695-.119-.784-.341l-1.138-3.225-1.125,3.21c-.089.236-.444.355-.813.355a.74.74,0,0,1-.74-.355l-2.278-5.842a.608.608,0,0,1-.074-.281c0-.458.74-.784,1.243-.784a.543.543,0,0,1,.548.31l1.479,4.2,1.109-3.654c.1-.34.354-.384.65-.384s.548.045.651.384l1.095,3.668,1.495-4.215a.548.548,0,0,1,.547-.31c.473,0,1.228.325,1.228.8a.542.542,0,0,1-.059.267Zm0,0" transform="translate(-240.46 -172.092)"/><path class="a" d="M438.057,217.452l-2.159-.314-.966-1.957a3,3,0,0,0-5.387,0l-.966,1.957-2.159.314a3,3,0,0,0-1.664,5.123l1.562,1.523-.369,2.151a3,3,0,0,0,4.358,3.166l1.931-1.016,1.931,1.016a3,3,0,0,0,4.358-3.166l-.369-2.151,1.562-1.523a3,3,0,0,0-1.664-5.123Zm-3.069,4.146a3.006,3.006,0,0,0-.863,2.658l.116.672-.6-.317a3,3,0,0,0-2.8,0l-.6.317.115-.672a3,3,0,0,0-.863-2.658l-.487-.476.674-.1a3.006,3.006,0,0,0,2.262-1.643l.3-.611.3.611a3,3,0,0,0,2.261,1.643l.674.1Zm0,0" transform="translate(-310.833 -156.712)"/></svg>