<svg xmlns="http://www.w3.org/2000/svg" width="39.284" height="32.546" viewBox="0 0 39.284 32.546"><defs><style>.a{fill:#656565;stroke:#656565;stroke-width:0.2px;}</style></defs><g transform="translate(-2.892 -16.114)"><rect class="a" width="1.475" height="1.475" transform="translate(15.535 36.12)"/><rect class="a" width="1.475" height="1.475" transform="translate(28.806 36.12)"/><path class="a" d="M28.212,35.127v1.307A2.392,2.392,0,0,0,26,38.812v.553a2.4,2.4,0,0,0,2.4,2.4H29.5a.921.921,0,0,1,.921.921v.553a.921.921,0,0,1-.921.921H28.4a.921.921,0,0,1-.921-.921H26a2.392,2.392,0,0,0,2.212,2.378v1.309h1.472V45.614A2.392,2.392,0,0,0,31.9,43.237v-.552a2.4,2.4,0,0,0-2.4-2.4H28.4a.921.921,0,0,1-.921-.921v-.555a.921.921,0,0,1,.921-.921H29.5a.921.921,0,0,1,.921.921H31.9a2.392,2.392,0,0,0-2.212-2.379V35.127Z" transform="translate(-6.042 -4.168)"/><path class="a" d="M3.086,39.412a.737.737,0,0,0,.652.394H3.75l1.911-.033c.574,2.093,3,8.786,10.555,8.786q.477,0,.983-.037a.737.737,0,0,0,.048-1.465,9.331,9.331,0,0,1-5.679-3.566h3.439A10.264,10.264,0,0,0,25.974,46.7a2.192,2.192,0,0,0,1.355.475H39.864a2.212,2.212,0,0,0,2.212-2.214V44.23a2.212,2.212,0,0,0-2.212-2.212h-.873a2.187,2.187,0,0,0,.136-.737v-.737a2.2,2.2,0,0,0-.575-1.475,2.2,2.2,0,0,0,.575-1.475v-.737a2.2,2.2,0,0,0-.575-1.475,2.2,2.2,0,0,0,.575-1.475v-.737a2.212,2.212,0,0,0-2.212-2.212H31.366a10.313,10.313,0,0,0-7.726-4.387c0-.012.005-.025.005-.037V25.8a2.19,2.19,0,0,0-.512-1.4c.192,0,.706-2.79.483-2.567a2.2,2.2,0,0,0-.547-1.2,2.2,2.2,0,0,0,.575-1.475v-.737a2.212,2.212,0,0,0-2.212-2.212H8.9a2.212,2.212,0,0,0-2.213,2.212v.737a2.2,2.2,0,0,0,.575,1.475,2.2,2.2,0,0,0-.575,1.475v.737a2.2,2.2,0,0,0,.575,1.475A2.2,2.2,0,0,0,6.685,25.8v.737A2.2,2.2,0,0,0,7.26,28.01a2.2,2.2,0,0,0-.575,1.475v.737A2.2,2.2,0,0,0,7.26,31.7a2.2,2.2,0,0,0-.575,1.475v.5L3.139,38.641a.737.737,0,0,0-.051.771Zm7.572,2.606a11.354,11.354,0,0,1-.835-2.212h3.2a10.218,10.218,0,0,0,.958,2.212Zm-2.5-8.847a.737.737,0,0,1,.737-.737h4.7a10.218,10.218,0,0,0-.767,2.212h-3.8l-.865-1.009Zm0-2.949v-.737a.737.737,0,0,1,.737-.739h7.644a10.39,10.39,0,0,0-2.095,2.212H8.9a.737.737,0,0,1-.737-.736Zm0-3.684V25.8a.737.737,0,0,1,.737-.736H21.434a.737.737,0,0,1,.737.737v.736c0,.012,0,.025-.005.037a10.233,10.233,0,0,0-3.066.7H8.9a.737.737,0,0,1-.737-.737Zm0-3.684v-.742a.737.737,0,0,1,.737-.737H21.434a.737.737,0,0,1,.737.737v.737a.737.737,0,0,1-.737.737H8.9a.737.737,0,0,1-.737-.737Zm4.461,13.271c-.018.245-.037.488-.037.737a10.236,10.236,0,0,0,.118,1.475h-.516l-1.893-2.212ZM40.6,44.23v.735a.737.737,0,0,1-.737.737H27.329a.737.737,0,0,1-.735-.737V44.23a.737.737,0,0,1,.737-.737H39.866A.737.737,0,0,1,40.6,44.23Zm-8.761-2.212a10.115,10.115,0,0,0,.958-2.212h4.116a.737.737,0,0,1,.737.737v.737a.737.737,0,0,1-.737.737Zm1.351-5.9h3.724a.737.737,0,0,1,.737.737v.737a.737.737,0,0,1-.737.737h-3.8a10.5,10.5,0,0,0,.111-1.475c0-.249-.019-.493-.037-.737Zm3.724-3.684a.737.737,0,0,1,.737.737v.735a.737.737,0,0,1-.737.737H32.983a10.218,10.218,0,0,0-.767-2.212Zm-5.16,4.421a8.749,8.749,0,0,1-1.67,5.161H27.331a2.212,2.212,0,0,0-2.212,2.212v.735a2.212,2.212,0,0,0,.045.443,8.847,8.847,0,1,1,6.591-8.55ZM8.162,18.425a.737.737,0,0,1,.737-.737H21.434a.737.737,0,0,1,.737.737v.737a.737.737,0,0,1-.737.737H8.9a.737.737,0,0,1-.737-.737ZM7.477,35.1l2.768,3.229H8.9a.737.737,0,0,0-.723.877,11.575,11.575,0,0,0,3.959,6.966c-4.162-2.076-5.116-7-5.168-7.28a.737.737,0,0,0-.725-.607H6.229l-1.04.018Z" transform="translate(0 0)"/></g></svg>