<svg height="60.117" viewBox="0 0 72.588 60.117" width="72.588" xmlns="http://www.w3.org/2000/svg"><g fill="#eb6018" stroke="#eb6018" transform="translate(-2.328 -15.714)"><path d="m25.907 52.595h2.695v2.695h-2.695z"/><path d="m50.162 52.595h2.695v2.695h-2.695z"/><path d="m30.042 35.127v2.389a4.372 4.372 0 0 0 -4.042 4.346v1.011a4.385 4.385 0 0 0 4.379 4.379h2.021a1.683 1.683 0 0 1 1.683 1.683v1.011a1.683 1.683 0 0 1 -1.683 1.683h-2.021a1.683 1.683 0 0 1 -1.679-1.684h-2.7a4.373 4.373 0 0 0 4.042 4.345v2.392h2.69v-2.387a4.373 4.373 0 0 0 4.042-4.345v-1.009a4.385 4.385 0 0 0 -4.374-4.379h-2.021a1.683 1.683 0 0 1 -1.679-1.683v-1.015a1.683 1.683 0 0 1 1.683-1.683h2.017a1.683 1.683 0 0 1 1.683 1.683h2.695a4.372 4.372 0 0 0 -4.042-4.348v-2.389z" transform="translate(7.992 8.036)"/><path d="m3.154 58.612a1.347 1.347 0 0 0 1.192.721h.022l3.494-.06c1.049 3.827 5.481 16.057 19.291 16.057q.872 0 1.8-.067a1.347 1.347 0 0 0 .088-2.677 17.053 17.053 0 0 1 -10.38-6.517h6.285a18.76 18.76 0 0 0 20.04 5.871 4.006 4.006 0 0 0 2.477.868h22.91a4.042 4.042 0 0 0 4.042-4.047v-1.343a4.042 4.042 0 0 0 -4.042-4.042h-1.6a4 4 0 0 0 .248-1.347v-1.349a4.021 4.021 0 0 0 -1.051-2.695 4.021 4.021 0 0 0 1.051-2.695v-1.347a4.021 4.021 0 0 0 -1.051-2.695 4.021 4.021 0 0 0 1.051-2.695v-1.348a4.042 4.042 0 0 0 -4.042-4.042h-10.138a18.849 18.849 0 0 0 -14.12-8.018c0-.022.009-.045.009-.067v-1.347a4 4 0 0 0 -.935-2.552c.35 0 1.29-5.1.883-4.692a4.014 4.014 0 0 0 -1-2.188 4.021 4.021 0 0 0 1.051-2.699v-1.344a4.042 4.042 0 0 0 -4.042-4.042h-22.91a4.042 4.042 0 0 0 -4.044 4.042v1.344a4.021 4.021 0 0 0 1.051 2.7 4.021 4.021 0 0 0 -1.051 2.695v1.347a4.021 4.021 0 0 0 1.051 2.695 4.021 4.021 0 0 0 -1.051 2.695v1.347a4.021 4.021 0 0 0 1.051 2.695 4.021 4.021 0 0 0 -1.051 2.695v1.347a4.021 4.021 0 0 0 1.051 2.695 4.021 4.021 0 0 0 -1.051 2.695v.916l-6.481 9.078a1.347 1.347 0 0 0 -.094 1.409zm13.839 4.763a20.751 20.751 0 0 1 -1.527-4.042h5.842a18.675 18.675 0 0 0 1.751 4.042zm-4.561-16.17a1.347 1.347 0 0 1 1.347-1.347h8.583a18.676 18.676 0 0 0 -1.4 4.042h-6.949l-1.58-1.845zm0-5.39v-1.347a1.347 1.347 0 0 1 1.347-1.35h13.971a18.99 18.99 0 0 0 -3.828 4.042h-10.142a1.347 1.347 0 0 1 -1.347-1.345zm0-6.733v-1.351a1.347 1.347 0 0 1 1.347-1.346h22.911a1.347 1.347 0 0 1 1.347 1.347v1.346c0 .022-.008.046-.009.068a18.7 18.7 0 0 0 -5.6 1.279h-18.648a1.347 1.347 0 0 1 -1.347-1.347zm0-6.733v-1.356a1.347 1.347 0 0 1 1.347-1.347h22.911a1.347 1.347 0 0 1 1.347 1.347v1.347a1.347 1.347 0 0 1 -1.347 1.347h-22.91a1.347 1.347 0 0 1 -1.347-1.347zm8.154 24.251c-.033.447-.068.892-.068 1.347a18.707 18.707 0 0 0 .216 2.695h-.944l-3.46-4.042zm51.134 14.818v1.342a1.347 1.347 0 0 1 -1.347 1.347h-22.91a1.347 1.347 0 0 1 -1.344-1.347v-1.342a1.347 1.347 0 0 1 1.347-1.347h22.91a1.347 1.347 0 0 1 1.344 1.347zm-16.011-4.043a18.486 18.486 0 0 0 1.751-4.042h7.523a1.347 1.347 0 0 1 1.347 1.347v1.347a1.347 1.347 0 0 1 -1.347 1.347zm2.468-10.775h6.806a1.347 1.347 0 0 1 1.347 1.347v1.343a1.347 1.347 0 0 1 -1.347 1.347h-6.939a19.2 19.2 0 0 0 .2-2.695c0-.455-.036-.9-.068-1.347zm6.806-6.733a1.347 1.347 0 0 1 1.347 1.343v1.343a1.347 1.347 0 0 1 -1.347 1.347h-7.183a18.675 18.675 0 0 0 -1.4-4.042zm-9.43 8.08a15.99 15.99 0 0 1 -3.053 9.428h-5.033a4.042 4.042 0 0 0 -4.042 4.042v1.343a4.043 4.043 0 0 0 .082.809 16.17 16.17 0 1 1 12.046-15.626zm-43.121-33.691a1.347 1.347 0 0 1 1.347-1.347h22.911a1.347 1.347 0 0 1 1.347 1.347v1.344a1.347 1.347 0 0 1 -1.347 1.347h-22.91a1.347 1.347 0 0 1 -1.348-1.347zm-1.252 30.484 5.06 5.9h-2.46a1.347 1.347 0 0 0 -1.322 1.6 21.156 21.156 0 0 0 7.235 12.732c-7.606-3.795-9.351-12.8-9.444-13.3a1.347 1.347 0 0 0 -1.326-1.109h-.023l-1.9.037z"/></g></svg>