<svg height="67.564" viewBox="0 0 66.443 67.564" width="66.443" xmlns="http://www.w3.org/2000/svg"><g fill="#eb6018" stroke="#eb6018"><path d="m28.1 25.8h-5.366a10.733 10.733 0 0 1 -10.734-10.726 1.074 1.074 0 0 1 1.074-1.074h5.366a10.733 10.733 0 0 1 10.733 10.733 1.074 1.074 0 0 1 -1.073 1.067zm-13.889-9.654a8.586 8.586 0 0 0 8.523 7.513h4.229a8.586 8.586 0 0 0 -8.523-7.513z" transform="translate(.277 .471)"/><path d="m43.772 23.694a10.734 10.734 0 0 1 -7.589-3.112 1.17 1.17 0 0 1 -.075-1.589l3.8-3.778a10.734 10.734 0 0 1 15.177 0 1.159 1.159 0 0 1 .354.794 1.127 1.127 0 0 1 -.279.794l-3.8 3.778a10.734 10.734 0 0 1 -7.588 3.112zm-5.366-4.015a8.586 8.586 0 0 0 11.409-.644l2.994-2.994a8.586 8.586 0 0 0 -11.42.644z" transform="translate(2.024 .331)"/><path d="m32.493 19.166a1.074 1.074 0 0 1 -.762-.311l-2.286-2.3a10.733 10.733 0 0 1 0-15.177 1.074 1.074 0 0 1 1.513 0l2.286 2.3a10.733 10.733 0 0 1 0 15.177 1.074 1.074 0 0 1 -.751.308zm-2.222-15.455a8.586 8.586 0 0 0 .708 11.334l1.439 1.481a8.586 8.586 0 0 0 -.708-11.334z" transform="translate(1.326 -.476)"/><path d="m32.44 30.514a1.074 1.074 0 0 1 -.762-.311l-5.366-5.366a1.078 1.078 0 1 1 1.524-1.524l5.364 5.366a1.074 1.074 0 0 1 -.762 1.835z" transform="translate(1.303 1.131)"/><path d="m32.074 25.514a1.074 1.074 0 0 1 -.762-1.835l5.366-5.366a1.078 1.078 0 1 1 1.522 1.524l-5.364 5.363a1.074 1.074 0 0 1 -.762.314z" transform="translate(1.669 .765)"/><path d="m32.074 36.934a1.074 1.074 0 0 1 -1.074-1.073v-18.784a1.074 1.074 0 0 1 2.146 0v18.784a1.074 1.074 0 0 1 -1.073 1.073z" transform="translate(1.67 .614)"/><path d="m36.954 42.623h-8.587a1.074 1.074 0 0 1 -.838-.4l-4.057-5.077a2.146 2.146 0 0 1 2.328-3.388 6.924 6.924 0 0 1 .9.4 3.155 3.155 0 0 0 1.664.419 3.22 3.22 0 0 0 1.664-.419 5.592 5.592 0 0 1 5.248 0 3.542 3.542 0 0 0 3.338 0 5.366 5.366 0 0 1 .9-.4 2.149 2.149 0 0 1 2.326 3.391l-4.057 5.077a1.074 1.074 0 0 1 -.829.397zm-8.072-2.144h7.518l3.778-4.669a4.819 4.819 0 0 0 -.6.258 5.592 5.592 0 0 1 -5.248 0 3.542 3.542 0 0 0 -3.338 0 5.592 5.592 0 0 1 -5.248 0 4.175 4.175 0 0 0 -.622-.268z" transform="translate(1.083 1.901)"/><path d="m44.846 64.686h-23.053a7.781 7.781 0 0 1 -5.281-13.513l11.8-10.883a1.074 1.074 0 0 1 .711-.29h8.586a1.074 1.074 0 0 1 .73.29l11.8 10.883a7.781 7.781 0 0 1 -5.3 13.513zm-15.4-22.54-11.483 10.606a5.645 5.645 0 0 0 3.832 9.788h23.051a5.645 5.645 0 0 0 3.833-9.788l-11.485-10.606z" transform="translate(.423 2.378)"/><path d="m32.215 56.734h-2.146a1.074 1.074 0 1 1 0-2.146h2.146a1.074 1.074 0 0 0 0-2.146 3.22 3.22 0 1 1 0-6.44h2.146a1.074 1.074 0 1 1 0 2.146h-2.146a1.074 1.074 0 1 0 0 2.146 3.22 3.22 0 1 1 0 6.44z" transform="translate(1.529 2.818)"/><path d="m32.074 48.289a1.074 1.074 0 0 1 -1.074-1.074v-2.146a1.074 1.074 0 1 1 2.146 0v2.146a1.074 1.074 0 0 1 -1.072 1.074z" transform="translate(1.67 2.676)"/><path d="m32.074 58.3a1.074 1.074 0 0 1 -1.074-1.075v-2.147a1.074 1.074 0 0 1 2.146 0v2.146a1.074 1.074 0 0 1 -1.072 1.076z" transform="translate(1.67 3.399)"/><path d="m40.1 42.146h-15.022a1.074 1.074 0 0 1 0-2.146h15.022a1.074 1.074 0 1 1 0 2.146z" transform="translate(1.152 2.378)"/><path d="m39.073 42.29a1.074 1.074 0 0 1 -.59-1.965l3.223-2.145a1.074 1.074 0 0 1 1.18 1.782l-3.22 2.146a1.009 1.009 0 0 1 -.594.182z" transform="translate(2.183 2.235)"/><path d="m42.3 44.3a1.009 1.009 0 0 1 -.59-.183l-3.218-2.151a1.074 1.074 0 1 1 1.18-1.782l3.22 2.146a1.074 1.074 0 0 1 -.592 1.97z" transform="translate(2.178 2.374)"/><path d="m4.225 33.445a1.074 1.074 0 0 1 -1.074-1.074 1.074 1.074 0 0 0 -1.074-1.071 1.074 1.074 0 0 1 0-2.146 1.074 1.074 0 0 0 1.074-1.074 1.074 1.074 0 0 1 2.146 0 1.074 1.074 0 0 0 1.074 1.074 1.074 1.074 0 0 1 0 2.146 1.074 1.074 0 0 0 -1.071 1.071 1.074 1.074 0 0 1 -1.075 1.074z" transform="translate(-.534 1.42)"/><path d="m58.215 24.435a1.074 1.074 0 0 1 -1.074-1.074 1.074 1.074 0 0 0 -1.074-1.074 1.074 1.074 0 1 1 0-2.146 1.074 1.074 0 0 0 1.074-1.074 1.074 1.074 0 1 1 2.146 0 1.074 1.074 0 0 0 1.074 1.074 1.074 1.074 0 0 1 0 2.146 1.074 1.074 0 0 0 -1.074 1.074 1.074 1.074 0 0 1 -1.073 1.074z" transform="translate(3.435 .77)"/><path d="m50.225 40.435a1.074 1.074 0 0 1 -1.074-1.074 1.074 1.074 0 0 0 -1.074-1.074 1.074 1.074 0 0 1 0-2.146 1.074 1.074 0 0 0 1.074-1.074 1.074 1.074 0 1 1 2.146 0 1.074 1.074 0 0 0 1.074 1.074 1.074 1.074 0 1 1 0 2.146 1.074 1.074 0 0 0 -1.071 1.074 1.074 1.074 0 0 1 -1.075 1.074z" transform="translate(2.839 1.943)"/><path d="m16.215 46.435a1.074 1.074 0 0 1 -1.074-1.074 1.074 1.074 0 0 0 -1.074-1.074 1.074 1.074 0 1 1 0-2.146 1.074 1.074 0 0 0 1.074-1.074 1.074 1.074 0 1 1 2.146 0 1.074 1.074 0 0 0 1.074 1.074 1.074 1.074 0 1 1 0 2.146 1.074 1.074 0 0 0 -1.074 1.074 1.074 1.074 0 0 1 -1.073 1.074z" transform="translate(.355 2.383)"/><path d="m46.225 11.445a1.074 1.074 0 0 1 -1.074-1.074 1.074 1.074 0 0 0 -1.074-1.071 1.074 1.074 0 0 1 0-2.146 1.074 1.074 0 0 0 1.074-1.074 1.074 1.074 0 0 1 2.146 0 1.074 1.074 0 0 0 1.074 1.074 1.074 1.074 0 0 1 0 2.146 1.074 1.074 0 0 0 -1.071 1.071 1.074 1.074 0 0 1 -1.073 1.074z" transform="translate(2.545 -.193)"/><path d="m16.215 11.435a1.074 1.074 0 0 1 -1.074-1.074 1.074 1.074 0 0 0 -1.074-1.074 1.074 1.074 0 1 1 0-2.146 1.074 1.074 0 0 0 1.074-1.074 1.074 1.074 0 1 1 2.146 0 1.074 1.074 0 0 0 1.074 1.074 1.074 1.074 0 1 1 0 2.146 1.074 1.074 0 0 0 -1.074 1.074 1.074 1.074 0 0 1 -1.073 1.074z" transform="translate(.355 -.183)"/><ellipse cx="41.258" cy="3.739" rx="1.074" ry="1.074"/><ellipse cx="57.357" cy="53.112" rx="1.074" ry="1.074"/><ellipse cx="11.204" cy="55.258" rx="1.074" ry="1.074"/><ellipse cx="64.87" cy="37.012" rx="1.074" ry="1.074"/><ellipse cx="41.258" cy="29.499" rx="1.074" ry="1.074"/><ellipse cx="6.911" cy="42.379" rx="1.074" ry="1.074"/><ellipse cx="23.011" cy="31.645" rx="1.074" ry="1.074"/><ellipse cx="9.058" cy="19.839" rx="1.074" ry="1.074"/></g></svg>