<svg xmlns="http://www.w3.org/2000/svg" width="113.246" height="114.352" viewBox="0 0 113.246 114.352"><defs><style>.a{fill:#eb6018;}</style></defs><path class="a" d="M110.539,21.7a11.113,11.113,0,0,0-8.509-3.756H20.637L19.818,11.8C18.935,5.183,14.329,0,9.331,0H3.35a3.35,3.35,0,0,0,0,6.7H9.331c1.075,0,3.351,2.273,3.846,5.985l9.59,71.925a13.546,13.546,0,0,0,4.586,8.358,13.844,13.844,0,0,0,6.43,3.2,12.323,12.323,0,1,0,21.793.243H73.13a12.321,12.321,0,1,0,21.917,0h8.778a3.35,3.35,0,1,0,0-6.7H36.244a7.191,7.191,0,0,1-6.836-5.986l-.7-5.256H94.854a13.908,13.908,0,0,0,13.477-11.8l4.805-36.04a11.114,11.114,0,0,0-2.6-8.93Zm-60.3,80.333a5.621,5.621,0,1,1-5.621-5.62A5.627,5.627,0,0,1,50.238,102.031Zm39.472,0a5.621,5.621,0,1,1-5.621-5.62A5.627,5.627,0,0,1,89.71,102.031ZM105.5,26.111a4.5,4.5,0,0,1,1,3.63L104.48,44.855h-22.8l1.347-20.213h19a4.506,4.506,0,0,1,3.467,1.469ZM57.921,71.768,56.573,51.555h17.95L73.175,71.768ZM56.126,44.855,54.779,24.642H76.317L74.97,44.855ZM48.064,24.642l1.347,20.213H24.225L21.53,24.642ZM25.118,51.555h24.74l1.348,20.213H27.813ZM94.854,71.768H79.891l1.348-20.213h22.348l-1.9,14.228a7.191,7.191,0,0,1-6.836,5.985Zm0,0"/></svg>