<svg xmlns="http://www.w3.org/2000/svg" width="110.38" height="110.38" viewBox="0 0 110.38 110.38"><defs><style>.a{fill:#eb6018;stroke:#eb6018;}</style></defs><g transform="translate(0.5 0.5)"><g transform="translate(21.876 91.15)"><path class="a" d="M166.2,426.667H104.223a1.822,1.822,0,0,0-1.823,1.823v8.63a7.785,7.785,0,0,0,7.777,7.777h50.074a7.785,7.785,0,0,0,7.777-7.777v-8.63A1.822,1.822,0,0,0,166.2,426.667Zm-1.823,10.453a4.135,4.135,0,0,1-4.129,4.131H110.177a4.135,4.135,0,0,1-4.131-4.131v-6.807h58.336Z" transform="translate(-102.4 -426.667)"/></g><g transform="translate(47.398 98.442)"><path class="a" d="M234.628,460.8H223.69a1.823,1.823,0,1,0,0,3.646h10.938a1.823,1.823,0,0,0,0-3.646Z" transform="translate(-221.867 -460.8)"/></g><g transform="translate(67.451 98.442)"><path class="a" d="M324.849,460.8h-7.292a1.823,1.823,0,1,0,0,3.646h7.292a1.823,1.823,0,0,0,0-3.646Z" transform="translate(-315.734 -460.8)"/></g><g transform="translate(30.991 98.442)"><path class="a" d="M154.182,460.8H146.89a1.823,1.823,0,1,0,0,3.646h7.292a1.823,1.823,0,1,0,0-3.646Z" transform="translate(-145.067 -460.8)"/></g><g transform="translate(21.876)"><path class="a" d="M160.253,0H110.177A7.785,7.785,0,0,0,102.4,7.777v8.63a1.822,1.822,0,0,0,1.823,1.823H166.2a1.822,1.822,0,0,0,1.823-1.823V7.777A7.784,7.784,0,0,0,160.253,0Zm4.129,14.584H106.046V7.777a4.136,4.136,0,0,1,4.131-4.131h50.074a4.135,4.135,0,0,1,4.131,4.131v6.807Z" transform="translate(-102.4 0)"/></g><g transform="translate(43.752 7.292)"><path class="a" d="M224.854,34.133h-18.23a1.823,1.823,0,0,0,0,3.646h18.23a1.823,1.823,0,0,0,0-3.646Z" transform="translate(-204.801 -34.133)"/></g><g transform="translate(21.876 14.584)"><path class="a" d="M166.2,68.267H104.223A1.822,1.822,0,0,0,102.4,70.09v76.566a1.822,1.822,0,0,0,1.823,1.823H166.2a1.822,1.822,0,0,0,1.823-1.823V70.09A1.822,1.822,0,0,0,166.2,68.267Zm-1.823,76.566H106.046V71.913h58.336v72.92Z" transform="translate(-102.4 -68.267)"/></g><g transform="translate(92.96 40.106)"><path class="a" d="M438.728,189.047a1.823,1.823,0,0,0-3.5,1.017,44.054,44.054,0,0,1-.013,24.543,1.825,1.825,0,0,0,1.24,2.26,1.852,1.852,0,0,0,.512.073,1.825,1.825,0,0,0,1.75-1.311,47.689,47.689,0,0,0,.013-26.583Z" transform="translate(-435.141 -187.733)"/></g><g transform="translate(10.951 40.104)"><path class="a" d="M56.656,214.6a44.037,44.037,0,0,1-.011-24.545,1.823,1.823,0,0,0-3.5-1.017,47.692,47.692,0,0,0,.013,26.583,1.821,1.821,0,0,0,1.748,1.313,1.784,1.784,0,0,0,.512-.073A1.822,1.822,0,0,0,56.656,214.6Z" transform="translate(-51.26 -187.725)"/></g><g transform="translate(0 32.814)"><path class="a" d="M3.646,175.476c0-7.42,1.238-14.278,3.487-19.309A1.823,1.823,0,0,0,3.8,154.679C1.351,160.17,0,167.553,0,175.476s1.351,15.306,3.8,20.8a1.829,1.829,0,0,0,1.666,1.079,1.8,1.8,0,0,0,.744-.159,1.824,1.824,0,0,0,.921-2.408C4.884,189.754,3.646,182.9,3.646,175.476Z" transform="translate(0 -153.6)"/></g><g transform="translate(102.088 32.813)"><path class="a" d="M481.353,154.677a1.823,1.823,0,0,0-3.329,1.488c2.25,5.031,3.487,11.889,3.487,19.309s-1.238,14.278-3.486,19.309a1.825,1.825,0,0,0,.921,2.408,1.789,1.789,0,0,0,.742.159,1.824,1.824,0,0,0,1.664-1.079c2.454-5.491,3.8-12.874,3.8-20.8S483.807,160.168,481.353,154.677Z" transform="translate(-477.866 -153.597)"/></g><g transform="translate(47.398 74.743)"><path class="a" d="M245.566,349.867H223.69a1.823,1.823,0,1,0,0,3.646h21.876a1.823,1.823,0,1,0,0-3.646Z" transform="translate(-221.867 -349.867)"/></g><g transform="translate(36.46 74.743)"><path class="a" d="M176.081,349.867H172.49a1.823,1.823,0,1,0,0,3.646h3.591a1.823,1.823,0,1,0,0-3.646Z" transform="translate(-170.667 -349.867)"/></g><g transform="translate(36.46 82.035)"><path class="a" d="M181.6,384H172.49a1.823,1.823,0,1,0,0,3.646H181.6a1.823,1.823,0,1,0,0-3.646Z" transform="translate(-170.667 -384)"/></g><g transform="translate(63.805 82.035)"><path class="a" d="M305.959,384H300.49a1.823,1.823,0,0,0,0,3.646h5.469a1.823,1.823,0,1,0,0-3.646Z" transform="translate(-298.667 -384)"/></g><g transform="translate(52.867 82.035)"><path class="a" d="M252.936,384H249.29a1.823,1.823,0,1,0,0,3.646h3.646a1.823,1.823,0,0,0,0-3.646Z" transform="translate(-247.467 -384)"/></g><g transform="translate(32.814 23.699)"><path class="a" d="M175.476,110.933a21.876,21.876,0,1,0,21.876,21.876A21.9,21.9,0,0,0,175.476,110.933Zm0,40.106a18.23,18.23,0,1,1,18.23-18.23A18.251,18.251,0,0,1,175.476,151.039Z" transform="translate(-153.6 -110.933)"/></g><g transform="translate(47.398 30.991)"><path class="a" d="M229.159,145.067a7.292,7.292,0,1,0,7.292,7.292A7.3,7.3,0,0,0,229.159,145.067Zm0,10.938a3.646,3.646,0,1,1,3.646-3.646A3.65,3.65,0,0,1,229.159,156Z" transform="translate(-221.867 -145.067)"/></g><g transform="translate(36.522 49.221)"><path class="a" d="M206.882,237.191c-3.429-4.187-10.233-6.791-17.756-6.791S174.8,233,171.37,237.191a1.825,1.825,0,0,0-.075,2.211,21.841,21.841,0,0,0,35.662,0A1.825,1.825,0,0,0,206.882,237.191Zm-17.756,7.793a18.261,18.261,0,0,1-13.948-6.515c3-2.72,8.275-4.423,13.948-4.423s10.949,1.7,13.948,4.423A18.261,18.261,0,0,1,189.126,244.984Z" transform="translate(-170.958 -230.4)"/></g></g></svg>