<svg xmlns="http://www.w3.org/2000/svg" width="125.548" height="125.651" viewBox="0 0 125.548 125.651"><defs><style>.a{fill:#fff;stroke:#fff;}</style></defs><g transform="translate(0.5 0.508)"><path class="a" d="M122.845,32.594H78.1a11.351,11.351,0,0,0-6.282-8.475l15.89-12.587a6.355,6.355,0,1,0-2.122-2.664L67.71,23.026c-.267-.019-.533-.041-.8-.041H57.642c-.271,0-.538.021-.8.041L38.965,8.869a6.433,6.433,0,1,0-2.122,2.664L52.733,24.12a11.349,11.349,0,0,0-6.282,8.475H1.7A1.7,1.7,0,0,0,0,34.3v78.239a1.7,1.7,0,0,0,1.7,1.7H9.73v5.682a4.628,4.628,0,0,0,4.622,4.625H26.393a4.628,4.628,0,0,0,4.622-4.622v-5.682H93.533v5.682a4.628,4.628,0,0,0,4.622,4.622H110.2a4.628,4.628,0,0,0,4.622-4.622v-5.682h8.028a1.7,1.7,0,0,0,1.7-1.7V34.3a1.7,1.7,0,0,0-1.7-1.7ZM91.465,3.4a2.981,2.981,0,1,1-2.981,2.981A2.981,2.981,0,0,1,91.465,3.4ZM30.1,6.381a2.981,2.981,0,1,1,2.981,2.981A2.981,2.981,0,0,1,30.1,6.381ZM57.639,26.391H66.9a7.945,7.945,0,0,1,7.745,6.2H49.9a7.945,7.945,0,0,1,7.741-6.2ZM27.61,119.921a1.218,1.218,0,0,1-1.216,1.216H14.352a1.217,1.217,0,0,1-1.216-1.216v-5.682H27.61Zm83.8,0a1.218,1.218,0,0,1-1.216,1.216H98.155a1.217,1.217,0,0,1-1.216-1.216v-5.682h14.474Zm9.73-9.087H3.406V36H47.753a1.689,1.689,0,0,0,.255.025H76.541A1.689,1.689,0,0,0,76.8,36h44.347Z" transform="translate(0 0.097)"/><path class="a" d="M17.541,43.5A7.55,7.55,0,0,0,10,51.042v47.1a7.55,7.55,0,0,0,7.541,7.541H78.332a7.55,7.55,0,0,0,7.541-7.541v-47.1A7.55,7.55,0,0,0,78.332,43.5Zm64.927,7.541v47.1a4.14,4.14,0,0,1-4.135,4.135H17.541a4.139,4.139,0,0,1-4.135-4.135v-47.1a4.139,4.139,0,0,1,4.135-4.136H78.332a4.14,4.14,0,0,1,4.135,4.136Z" transform="translate(-0.27 -1.078)"/><path class="a" d="M105.925,66.383A11.441,11.441,0,1,0,94.484,54.942a11.441,11.441,0,0,0,11.441,11.441Zm0-19.476a8.035,8.035,0,1,1-8.035,8.035,8.035,8.035,0,0,1,8.035-8.035Z" transform="translate(-2.548 -1.078)"/><path class="a" d="M96.187,85.086h19.476a1.7,1.7,0,0,0,1.7-1.7V73.353a1.7,1.7,0,0,0-1.7-1.7H96.187a1.7,1.7,0,0,0-1.7,1.7v10.03a1.7,1.7,0,0,0,1.7,1.7Zm1.7-10.034H113.96V81.68H97.89Z" transform="translate(-2.548 -1.837)"/><path class="a" d="M96.187,95.678h19.476a1.7,1.7,0,1,0,0-3.406H96.187a1.7,1.7,0,0,0,0,3.406Z" transform="translate(-2.548 -2.393)"/><path class="a" d="M96.187,107.315h19.476a1.7,1.7,0,1,0,0-3.406H96.187a1.7,1.7,0,0,0,0,3.406Z" transform="translate(-2.548 -2.707)"/></g></svg>