<svg xmlns="http://www.w3.org/2000/svg" width="483.472" height="351.24" viewBox="0 0 483.472 351.24"><defs><style>.a,.h{fill:#eb6018;}.a{opacity:0.18;}.b{fill:#f2f2f2;}.c{fill:#2f2e41;}.d{fill:#ffb9b9;}.e{opacity:0.1;}.f{fill:#656565;}.g,.i{opacity:0.2;}.i,.k{fill:none;stroke-miterlimit:10;stroke-width:2px;}.i{stroke:#000;}.j{fill:#575a89;}.k{stroke:#3f3d56;}.l{fill:#3f3d56;}.m{fill:#6c63ff;}.n{fill:#9f616a;}.o{fill:#d0cde1;}.p{fill:#57b894;}</style></defs><g transform="translate(0 0.357)"><circle class="a" cx="164" cy="164" r="164" transform="translate(44 -0.357)"/><ellipse class="b" cx="65.108" cy="10.417" rx="65.108" ry="10.417" transform="translate(0 330.049)"/><ellipse class="b" cx="100.742" cy="16.119" rx="100.742" ry="16.119" transform="translate(281.988 308.057)"/><path class="c" d="M859.065,435.945s.858,2.859-4,5.432-6.29,12.293-.572,15.152,7.433,6.576,4.574,9.149-8.005,9.435-1.144,11.15,7.719,5.146,5.718,6.576,4.574-2.573,4.574-2.573,1.144,6.861,7.147,5.146,22.871-34.307,14.295-38.882S859.065,435.945,859.065,435.945Z" transform="translate(-498.718 -266.702)"/><path class="d" d="M879.016,493.468s2.966,10.38-2.224,11.121a20.259,20.259,0,0,0-8.9,3.707l9.638,12.6h17.793l11.121-11.121s-14.828-11.121-11.862-17.793S879.016,493.468,879.016,493.468Z" transform="translate(-508.307 -296.619)"/><path class="e" d="M879.016,493.468s2.966,10.38-2.224,11.121a20.259,20.259,0,0,0-8.9,3.707l9.638,12.6h17.793l11.121-11.121s-14.828-11.121-11.862-17.793S879.016,493.468,879.016,493.468Z" transform="translate(-508.307 -296.619)"/><path class="d" d="M852.787,726.847l17.052,5.931,11.862.741-.741-10.38L856.494,715.9Z" transform="translate(-477.629 -400.995)"/><path class="f" d="M953,774.344s0,10.38,1.483,10.38,21.5-2.224,27.432,0,14.828-5.931,10.38-10.38-11.7-11.121-16.232-9.638S953,769.9,953,769.9Z" transform="translate(-555.974 -450.717)"/><path class="f" d="M822.763,764.974s-8.9,17.794-2.966,19.276,12.6-.741,13.345-1.483,11.121-3.707,12.6-2.224,1.483-5.931,1.483-5.931Z" transform="translate(-480.226 -450.985)"/><path class="c" d="M836.41,709.359s-14.087,19.276-3.707,24.466,60.053,5.19,63.76,0,5.19-21.5,0-22.983S836.41,709.359,836.41,709.359Z" transform="translate(-486.459 -419.836)"/><path class="g" d="M836.41,709.359s-14.087,19.276-3.707,24.466,60.053,5.19,63.76,0,5.19-21.5,0-22.983S836.41,709.359,836.41,709.359Z" transform="translate(-486.459 -419.836)"/><circle class="d" cx="17.052" cy="17.052" r="17.052" transform="translate(359.588 167.934)"/><path class="h" d="M845.987,528.627l14.828-2.966s3.707,11.862,15.569,9.638,14.828-9.638,14.828-9.638,8.9,3.707,9.638,3.707,10.38,3.707,10.38,5.931-11.121,24.466-11.121,24.466l1.483,40.035-54.863-1.483,3.707-39.294Z" transform="translate(-496.037 -316.951)"/><path class="d" d="M824.262,576.22s-4.448,39.294-1.483,42.259S837.607,629.6,837.607,629.6v-8.9l-5.931-11.121,5.931-25.949Z" transform="translate(-482.468 -345.267)"/><path class="d" d="M982.53,573.692s-2.595,40.406-2.595,41.889-6.673,6.673-8.9,6.673-3.707-3.707-3.707-3.707l5.19-5.931-3.707-30.4Z" transform="translate(-563.999 -343.851)"/><path class="c" d="M941.976,692.13s33.363-18.535,34.1,0-17.052,25.949-17.052,25.949-45.966,13.784-47.82,8.745-5.56-13.194-2.595-13.935,6.673-2.224,8.155-.741,20.018-11.121,20.018-11.121Z" transform="translate(-530.49 -405.573)"/><path class="i" d="M994.831,697.562s-6.673,2.966-8.9,5.19-11.862,5.931-11.862,5.931" transform="translate(-567.774 -413.229)"/><path class="h" d="M834.979,533.885l-4.448-1.483s-16.311,17.052-11.121,21.5,8.155,5.931,9.638,7.414,8.9,2.224,8.9,2.224Z" transform="translate(-480.58 -320.726)"/><path class="h" d="M965.91,544.2l6.673,1.483s5.19,11.121,6.673,12.6-2.224.741-4.448,3.707-4.448,8.155-8.9,8.155-10.38-7.414-10.38-7.414Z" transform="translate(-557.39 -327.334)"/><path class="c" d="M799.685,704.214s-28.173-20.018-37.811-5.19,41.518,34.846,48.932,37.811,14.087,5.931,14.087,5.931,6.673-16.311,6.673-19.276-5.19-2.966-6.673-2.966-8.155-1.483-9.638-3.707S799.685,704.214,799.685,704.214Z" transform="translate(-448.252 -410.984)"/><path class="i" d="M813.966,705.988s7.414,5.931,14.087,7.414,8.9,5.19,8.9,5.19" transform="translate(-478.102 -417.948)"/><path class="j" d="M837.731,637.525l.592,31.391a3.93,3.93,0,0,0,3.973,3.855l58.417-.656a3.93,3.93,0,0,0,3.879-3.7l1.773-30.735a3.93,3.93,0,0,0-3.923-4.156H841.66a3.93,3.93,0,0,0-3.929,4Z" transform="translate(-491.412 -377.36)"/><path class="c" d="M897.036,423.04s.95,3.167-4.434,6.018-6.968,13.619-.633,16.786,8.235,7.284,5.067,10.135-8.868,10.452-1.267,12.352,8.551,5.7,6.334,7.284,5.067-2.85,5.067-2.85,1.267,7.6,7.918,5.7,13.287-36.443,5.873-45.339C914.068,424.853,897.036,423.04,897.036,423.04Z" transform="translate(-519.484 -259.474)"/><path class="c" d="M904.13,412.875c0-4.64,13.883-1.306,19.835,5.173,4.121,4.486,10.382,11.236,5.136,15.993s8.992,10.995,12.81,12.885,11.357,7.673,4.55,11.553-6.7,7.8-4.136,8.722-5.648-1.379-5.648-1.379.83,7.661-6.087,7.625-26.761-38.051-22.021-48.617C912.977,415.006,904.13,412.875,904.13,412.875Z" transform="translate(-528.601 -252.569)"/><path class="c" d="M884.959,413.237c-18.564-1.118-20.427,12.856-20.427,12.856.128,8.087,12.97,4.146,16.537,5.352,4.3-3.1,12.6-8.952,18.529-13.132a28.055,28.055,0,0,0-14.639-5.075Z" transform="translate(-506.423 -253.948)"/><path class="k" d="M745.047,444.574S728.4,366.533,624.169,309.92" transform="translate(-371.801 -196.118)"/><path class="l" d="M576.894,254.891l.209.856-4.216,1.022,1.328,4.13-.839.269-1.617-5.031Z" transform="translate(-320.232 -142.791)"/><path class="m" d="M85.554,768.678c0,9.884-5.876,13.336-13.125,13.336q-.252,0-.5-.006c-.336-.007-.669-.023-1-.046-6.542-.463-11.624-4.092-11.624-13.284,0-9.513,12.157-21.518,13.07-22.406l0,0,.053-.051S85.554,758.794,85.554,768.678Z" transform="translate(-55.432 -440.481)"/><path class="l" d="M81.336,780.5l4.8-6.708-4.812,7.444-.013.77c-.336-.007-.669-.023-1-.046l.517-9.889,0-.077.009-.015.049-.934-4.824-7.463,4.839,6.762.011.2.391-7.472-4.13-7.711,4.181,6.4.407-15.491,0-.053v.051l-.068,12.215,4.112-4.843-4.129,5.895-.109,6.69,3.839-6.42-3.855,7.4-.061,3.719L87.065,762,81.471,772.23Z" transform="translate(-64.816 -440.481)"/><path class="c" d="M228.825,788.795l2.807-2.086s1.858,10.381-.215,11.936-9.85,4.147-9.85,7.258-17.627,7.258-18.145,2.592a10.281,10.281,0,0,1,1.555-7.258s8.295-8.295,9.332-9.85,3.629-4.666,3.629-4.666Z" transform="translate(-136.102 -463.158)"/><path class="c" d="M167,490.754s.078.456.213,1.291c.124.741.3,1.789.5,3.079,2.177,13.287,8.528,52.4,8.1,53.694-.518,1.555-4.147,7.258,0,8.813a3.217,3.217,0,0,1,1.291,1.4,30.131,30.131,0,0,1,2.193,5.174c2.473,7.175,5.117,18.658,6.646,26.611.669,3.494,1.125,6.3,1.26,7.776a4.229,4.229,0,0,1,.016,1.026c-.518,2.074,3.111,9.332,4.666,11.405s4.147,4.147,3.629,6.221,12.961,7.776,14.516,4.147,1.555-5.7,2.074-6.74,1.037-8.295-1.555-9.332-1.037-19.182-3.629-22.811c-.866-1.208-2.188-5.3-3.572-10.218-.544-1.929-1.094-3.982-1.633-6.04-2.188-8.435-4.127-16.922-4.127-16.922l.519-60.656-28.514-3.629-.731,1.612-1.457,3.2Z" transform="translate(-115.747 -294.205)"/><path class="c" d="M138.742,721.931s-4.147-4.147-6.221,0-4.147,20.219-7.776,23.848-8.295,21.774-3.111,22.811,10.887-1.555,11.405-4.666,11.405-19.182,11.405-20.737-7.258-7.258-7.258-7.258Z" transform="translate(-89.048 -425.845)"/><path class="c" d="M222.428,431.385s-6.74,60.656-8.295,66.359-9.85,27.477-12.442,31.106-19.182,33.179-21.256,34.735-6.221,5.7-6.221,5.7-7.776,7.776-8.813,9.332-9.85-3.111-10.369-6.221.518-8.295,1.037-10.369-1.037-5.184.518-6.74,9.332-9.332,9.332-12.961,13.479-24.885,18.663-29.55,4.147-12.442,4.147-12.442V468.712L160.216,459.9s1.555-24.885,5.184-24.885S216.725,426.719,222.428,431.385Z" transform="translate(-108.967 -263.351)"/><circle class="n" cx="17.108" cy="17.108" r="17.108" transform="translate(54.359 47.241)"/><path class="n" d="M196.878,216.908s2.074,7.776,4.666,9.85-6.74,10.887-6.74,10.887l-17.627,1.037-3.111-9.85s5.7-11.405,4.147-18.663S196.878,216.908,196.878,216.908Z" transform="translate(-119.707 -139.08)"/><path class="h" d="M200.176,248.18s-4.666.518-5.7,2.074-8.295,6.221-14,5.184-9.332-2.592-10.369-2.074S167,264.77,167,264.77l5.7,16.59-1.037,45.622-1.555,12.442s-3.111-4.147,9.332-1.555,28.514-2.074,33.7-2.592,14-2.074,14.516-5.184-1.555-14.516-1.555-14.516L217.8,280.841l-5.184-18.663Z" transform="translate(-115.747 -161.539)"/><path class="o" d="M231.271,241.444s4.385-2.326,5.941-.252,21.256,5.184,21.256,6.74,4.147,43.548,3.111,47.177,2.074,7.776,2.074,7.776l3.629,15.553s9.85,29.55,5.7,30.587-7.776,0-9.332,0-1.037-19.7-5.184-24.885S248.617,306,247.58,303.4s-14-38.364-13.479-42.511S231.271,241.444,231.271,241.444Z" transform="translate(-151.746 -157.143)"/><path class="o" d="M154.595,248.18s-4.147,0-4.666,1.037-5.7,7.776-7.776,9.332-9.332,8.295-9.332,9.85,15.034,12.961,15.034,12.961,6.221,30.587,3.111,40.956-7.776,35.253-5.7,36.808,6.74,2.074,6.74,0,3.111-24.366,5.7-29.032,10.369-34.216,7.258-42.511S154.595,248.18,154.595,248.18Z" transform="translate(-96.606 -161.539)"/><path class="n" d="M291.011,364.847s.518,16.071-5.184,24.366a98.521,98.521,0,0,0-9.332,17.627s-9.332-2.592-10.887-5.7-11.405-.518-11.405-1.555,11.924-6.221,12.961-7.258,4.666-1.037,6.74-3.111,2.592-6.74,2.592-6.74l2.074-13.479Z" transform="translate(-164.59 -226.881)"/><path class="c" d="M196.041,153.159a9.859,9.859,0,0,0,3.837-.878,5.137,5.137,0,0,0,1.313-7.607,9.83,9.83,0,0,0-1.823-1.466l-3.941-2.682a19.275,19.275,0,0,0-5.56-2.951,17.356,17.356,0,0,0-5.684-.336,38.4,38.4,0,0,0-10.887,1.98,18.221,18.221,0,0,0-8.822,6.455c-3.337,4.828-3.382,11.339-1.545,16.912s5.328,10.427,8.768,15.182l1.785-8.708a3.214,3.214,0,0,1,1.01-2.085c1.6-1.141,3.565,1.2,5.532,1.186a3.314,3.314,0,0,0,2.805-2.22,12.65,12.65,0,0,0,.622-3.725c.235-2.668,1.167-6.38,3.694-7.851C189.5,152.994,193.394,153.4,196.041,153.159Z" transform="translate(-112.79 -99.359)"/><path class="e" d="M233.424,498.762s-1.751,50.647-2.788,52.2,0-52.361,0-52.361Z" transform="translate(-151.133 -301.796)"/><path class="o" d="M283.664,257.607h4.147s17.627,23.848,15.553,25.4,0,5.7,0,5.7l4.147,7.776s5.184,4.666,3.629,5.7-3.629,5.184-3.629,5.184-10.369-1.555-13.479,4.666l-6.724-8.488Z" transform="translate(-181.091 -166.818)"/><rect class="c" width="15.397" height="28.693" transform="translate(89.807 104.336) rotate(-22.438)"/><ellipse class="m" cx="3.079" cy="2.829" rx="3.079" ry="2.829" transform="translate(97.365 109.959) rotate(-22.438)"/><path class="n" d="M202.5,323.506s-37.327,31.106-43.548,21.256,6.74-18.145,6.74-18.145,11.405.518,24.366-7.776l12.961-5.7s11.832-16.892,15.864-10.46S212,320.305,202.5,323.506Z" transform="translate(-110.296 -191.243)"/><path class="o" d="M135.884,289.426l-5.7,2.074v15.553l-2.074,3.111s.518,6.221,2.074,7.776,4.666,1.037,3.629,4.666a19.65,19.65,0,0,0-.518,7.258s9.332,11.924,9.85,10.369,7.776-20.737,8.813-20.737-10.369-30.069-10.369-30.069Z" transform="translate(-93.966 -184.64)"/><path class="c" d="M286.72,456.481s5.36-5.184,2.68-5.444-12.012-5.443-13.567-2.851S286.72,456.481,286.72,456.481Z" transform="translate(-176.629 -273.153)"/><ellipse class="p" cx="7" cy="4" rx="7" ry="4" transform="translate(205 76.643)"/><path class="k" d="M533.091,233.083a69.364,69.364,0,0,0-50.591,0V212.407a87.561,87.561,0,0,1,50.591,0Z" transform="translate(-292.455 -139.412)"/><path class="k" d="M535.013,232.011a50.063,50.063,0,0,0-36.513,0V217.088a63.2,63.2,0,0,1,36.513,0Z" transform="translate(-301.416 -142.616)"/><ellipse class="k" cx="7.5" cy="4" rx="7.5" ry="4" transform="translate(207 74.643)"/><ellipse class="p" cx="7.479" cy="3.959" rx="7.479" ry="3.959" transform="matrix(0.98, -0.2, 0.2, 0.98, 208.628, 102.967)"/><path class="k" d="M544.514,280.84a69.364,69.364,0,0,0-49.569,10.117L490.81,270.7a87.561,87.561,0,0,1,49.569-10.117Z" transform="translate(-297.109 -168.278)"/><path class="k" d="M545.919,281.824a50.063,50.063,0,0,0-35.776,7.3L507.159,274.5a63.2,63.2,0,0,1,35.776-7.3Z" transform="translate(-306.266 -172.044)"/><ellipse class="k" cx="7.479" cy="3.959" rx="7.479" ry="3.959" transform="matrix(0.98, -0.2, 0.2, 0.98, 210.863, 100.715)"/><ellipse class="p" cx="3.959" cy="7.479" rx="3.959" ry="7.479" transform="translate(207.463 133.388) rotate(-86.019)"/><path class="k" d="M538.181,347.578a69.365,69.365,0,0,0-50.469-3.512l1.435-20.626a87.561,87.561,0,0,1,50.469,3.512Z" transform="translate(-295.374 -202.469)"/><path class="k" d="M540.774,346.095a50.063,50.063,0,0,0-36.425-2.535l1.036-14.887a63.2,63.2,0,0,1,36.425,2.535Z" transform="translate(-304.692 -205.74)"/><ellipse class="k" cx="3.959" cy="7.479" rx="3.959" ry="7.479" transform="translate(210.218 131.816) rotate(-86.019)"/><path class="k" d="M394.862,264.371s-32.332-4.423-55.422,9.108" transform="translate(-212.33 -170.22)"/><path class="l" d="M288.674,224.459l.84.266L288.2,228.86l4.221,1.007-.205.857-5.14-1.228Z" transform="translate(-160.786 -125.747)"/></g></svg>